<?xml version="1.0" standalone="no"?>
<!DOCTYPE svg PUBLIC "-//W3C//DTD SVG 20010904//EN"
 "http://www.w3.org/TR/2001/REC-SVG-20010904/DTD/svg10.dtd">
<svg version="1.0" xmlns="http://www.w3.org/2000/svg"
 width="512.000000pt" height="512.000000pt" viewBox="0 0 512.000000 512.000000"
 preserveAspectRatio="xMidYMid meet">

<g transform="translate(0.000000,512.000000) scale(0.100000,-0.100000)"
fill="#000000" stroke="none">
<path d="M1287 4025 c-517 -407 -764 -633 -899 -825 -121 -171 -240 -423 -297
-625 -175 -627 -36 -1295 377 -1806 69 -86 230 -244 318 -311 351 -270 785
-418 1224 -418 317 0 592 65 881 206 261 128 454 276 652 502 180 206 647 792
647 813 0 4 -35 36 -77 71 -89 72 -748 613 -777 637 -22 19 6 49 -272 -299
-205 -257 -444 -538 -518 -612 -54 -53 -198 -129 -291 -154 -79 -21 -271 -29
-364 -15 -199 31 -400 140 -522 284 -198 234 -265 559 -174 845 27 86 90 200
138 251 53 56 387 336 662 556 143 114 261 211 263 214 1 3 -93 121 -208 261
-116 140 -277 337 -358 437 -81 100 -149 182 -152 182 -3 1 -116 -87 -253
-194z"/>
</g>
</svg>
